<?xml version="1.0" encoding="UTF-8"?>
<svg width="167px" height="37px" viewBox="0 0 167 37" version="1.1" xmlns="http://www.w3.org/2000/svg">
    <title>Asset 1</title>
    <desc>Created with Sketch.</desc>
    <defs>
        <linearGradient x1="24.6318786%" y1="100.087222%" x2="77.7034736%" y2="20.1918884%" id="linearGradient-1">
            <stop stop-color="#66FF99" offset="0%"/>
            <stop stop-color="#33FFFF" offset="100%"/>
        </linearGradient>
    </defs>
    <g id="Symbols" stroke="none" stroke-width="1" fill="none" fill-rule="evenodd">
        <g id="1024-Header---Guest" transform="translate(-26.000000, -35.000000)">
            <g id="Asset-1" transform="translate(26.000000, 35.000000)">
                <path d="M12.2048201,37 C4.82721954,37 0.185043416,32.7625194 0,25.9230769 L0,25.2374806 L3.39514441,25.2374806 L3.39514441,25.8074342 C3.72500442,30.6726897 7.16842102,33.8033041 12.2048201,33.8033041 C14.1759347,33.8033041 20.5961367,33.4068147 20.5961367,28.2689726 C20.5961367,24.1388745 16.6619528,23.3128549 12.1163211,22.3629324 L11.3117845,22.2059886 C5.90529858,21.0495612 1.0137161,19.5131647 1.0137161,13.210635 C1.0137161,5.61125452 9.41307811,5.02478059 11.9875952,5.02478059 C19.0996987,5.02478059 23.1706538,8.6675271 23.1706538,15.0361384 L23.1706538,15.7052142 L19.767464,15.7052142 L19.767464,15.1022199 C19.7111465,9.42746515 15.5034201,8.2462571 11.9956406,8.2462571 C8.34304445,8.2462571 4.43299662,9.5431079 4.43299662,13.2023748 C4.43299662,17.1177078 8.45567957,17.9602478 12.7760411,18.852349 L13.4035796,18.9762519 C19.2042884,20.1491998 24.0154172,21.6525555 24.0154172,28.2359319 C24.0154172,36.3639649 14.9804713,36.9917398 12.2128654,36.9917398 L12.2048201,37 Z M107.357363,36.9917398 C110.116923,36.9917398 119.151869,36.3639649 119.151869,28.2359319 C119.151869,21.6277749 114.32465,20.1491998 108.540031,18.9762519 L107.920538,18.852349 C103.624313,17.9602478 99.5774938,17.1177078 99.5774938,13.2023748 C99.5774938,9.5348477 103.479496,8.2462571 107.132092,8.2462571 C110.647917,8.2462571 114.847598,9.42746515 114.911961,15.1022199 L114.911961,15.7052142 L118.315151,15.7052142 L118.315151,15.0361384 C118.315151,8.6675271 114.236151,5.02478059 107.124047,5.02478059 C104.54953,5.02478059 96.1582133,5.61125452 96.1582133,13.210635 C96.1582133,19.5131647 101.049796,21.0495612 106.496509,22.1812081 L107.252773,22.3381518 C111.80645,23.2798141 115.732589,24.0975736 115.732589,28.244192 C115.732589,33.3820341 109.296296,33.7785235 107.349317,33.7785235 C102.312918,33.7785235 98.8695016,30.6726897 98.5637777,25.8074342 L98.5637777,25.2374806 L95.1766787,25.2374806 L95.1766787,25.9230769 C95.3456314,32.7625194 100.003898,37 107.373453,37 L107.357363,36.9917398 Z M81.1696966,36.3226639 L84.5809318,36.3226639 L84.5809318,19.6453278 C84.5809318,15.5152297 85.5141942,13.8631905 87.6059894,11.6907589 C89.2654677,9.95253193 91.5348248,8.97055884 93.9055109,8.96489417 C94.2770113,8.966077 94.6479859,8.99367703 95.0157714,9.04749613 L95.6754914,9.13009809 L95.6754914,5.56169334 L95.0399075,5.56169334 L94.4847772,5.56169334 C90.4138221,5.56169334 86.5681372,7.53588023 84.5809318,10.4021683 L84.5809318,5.71863707 L81.1696966,5.71863707 L81.1696966,36.3226639 L81.1696966,36.3226639 Z M48.2721954,25.2374806 L51.6995213,25.2374806 L51.6190677,25.7661332 C50.4363989,33.043366 45.8344496,37 38.6499378,37 C30.6045719,37 25.3992202,30.9287558 25.3992202,21.5203924 C25.3992202,13.3097574 29.4943114,5 38.6499378,5 C42.5117135,5 45.6574515,6.27207021 47.9906076,8.78316985 C50.7099413,11.7072793 52.0696082,16.159525 51.8362925,21.3056273 L51.8362925,21.9416624 L28.8345914,21.9416624 C28.9069997,25.6422303 30.0896685,28.9463087 32.1251461,31.0278782 C33.8395417,32.8392565 36.2063008,33.8435193 38.6660286,33.8033041 C43.710473,33.8033041 47.2826154,30.7552917 48.2239233,25.6422303 L48.2882862,25.2622612 L48.2721954,25.2374806 Z M28.9069997,18.7449664 L48.4089667,18.7449664 C48.0549706,13.4254001 44.6839623,8.2462571 38.6660286,8.2462571 C33.0342724,8.2462571 29.5667197,13.4254001 28.9069997,18.7449664 L28.9069997,18.7449664 Z M66.3903595,5.02478059 C73.2530566,5.02478059 77.0263332,7.96541043 77.0263332,13.3262777 L77.0263332,36.3226639 L73.6070527,36.3226639 L73.6070527,32.1925658 C71.8129361,34.6706247 68.4902,36.9917398 63.5583907,36.9917398 C56.9853267,36.9917398 53.3649121,33.8198245 53.3649121,28.0624677 C53.3649121,22.305111 57.1220979,19.2818792 64.4594717,18.7449664 C73.6714156,18.0263294 73.6714156,17.6711409 73.6714156,13.3262777 C73.6714156,12.2524522 72.4324293,8.2462571 66.4305863,8.2462571 C61.4505048,8.2462571 58.5783092,10.7903975 58.3208575,15.4161074 L58.3208575,15.7052142 L54.8533048,15.7052142 L54.8533048,15.4161074 C55.1429379,8.69230769 59.2380292,5.02478059 66.3823141,5.02478059 L66.3903595,5.02478059 Z M73.6231434,20.3639649 C72.0140702,21.2643263 69.5119614,21.462571 66.929399,21.6855963 C65.9800458,21.759938 64.9904658,21.84254 64.0330673,21.966443 C58.8920784,22.6107383 56.7922379,24.3784202 56.7922379,28.0707279 C56.7922379,31.5400103 59.4713448,33.7785235 63.6227536,33.7785235 C73.2771927,33.7785235 73.6150981,24.5766649 73.6231434,24.4775426 L73.6231434,20.3639649 Z" id="Shape" fill="#002859"/>
                <path d="M148.557547,17.3946795 L148.557547,17.3946795 C150.390311,17.4592237 151.862789,20.1055386 151.862789,23.365024 C151.867706,24.3899257 151.711655,25.4088994 151.400682,26.3824684 C151.070543,27.7398844 150.223594,28.9031341 149.050983,29.6096816 L148.996157,29.6096816 L148.863008,29.69843 L148.690696,29.8113825 C148.245207,29.5774458 147.818327,29.3076746 147.414027,29.0045792 L147.414027,29.0045792 C147.000155,28.7401398 146.643024,28.3914794 146.364495,27.9799389 C145.890289,27.3473518 145.573047,26.6051532 145.440281,25.8177061 C145.246891,25.0263509 145.149549,24.2133395 145.150485,23.3972961 C145.150485,20.1700829 146.622962,17.4914959 148.455727,17.4269516 L148.557547,17.4269516 M139.158755,32.143044 C137.725439,30.0695595 136.025824,23.3488879 136.675907,18.984082 C137.028362,16.563672 139.24491,12.9733973 142.448332,9.59289141 C145.651754,6.21238552 148.009284,4.86502399 148.628038,4.67139119 C149.246792,4.88116005 151.69831,6.38988225 154.940893,9.8833406 C158.183477,13.376799 160.28254,16.8218491 160.478348,18.8711295 C160.979617,24.0266027 159.40532,30.3600087 158.12865,31.9574793 C157.878016,32.2721326 156.476029,32.5464457 153.625062,31.7477104 C155.431581,29.6631046 156.333993,26.9093642 156.123575,24.1234191 C156.00609,19.7908853 154.557109,17.1122983 153.41359,15.6277802 C151.988106,13.8124727 150.100515,12.7313563 148.502721,12.7797645 C146.098196,12.8523768 140.85837,15.9666376 140.952357,24.7607937 C140.903307,27.470139 141.967098,30.0748714 143.881648,31.9332752 C142.790556,32.2374746 141.667379,32.4027571 140.537244,32.4254252 C139.754011,32.4254252 139.27624,32.3124727 139.14309,32.143044 M139.229246,6.32533799 C133.613467,12.2472743 132.454283,16.6524204 132.180151,18.2740951 C132.059399,19.1696395 131.999206,20.0727451 132.000008,20.9768862 L132.000008,21.1221108 C132.000008,26.2130397 133.644797,32.1672481 135.454064,34.7893589 C136.472267,36.2496729 138.211043,37 140.631232,37 C143.497999,36.8708514 146.313922,36.1751298 148.925666,34.9507196 C153.327434,36.7821631 158.951045,38.1779328 161.574874,34.8458352 C164.292692,31.408853 165.342223,22.9374182 164.903613,18.3709115 C164.465003,13.8044047 159.992744,8.63279546 158.097321,6.59158308 C156.671837,5.05058875 151.721807,-1.13686838e-13 148.604541,-1.13686838e-13 C145.487275,-1.13686838e-13 140.6234,4.84081989 139.205749,6.31726995" id="Shape" fill="url(#linearGradient-1)"/>
                <polygon id="Path" fill="#66FF99" points="163.787879 35.3235294 163 35.3235294 163 35 165 35 165 35.3235294 164.224242 35.3235294 164.224242 37 163.787879 37"/>
                <polygon id="Path" fill="#66FF99" points="165 35 165.38 35 166 35.9803922 166.62 35 167 35 167 36.9607843 166.64 36.9607843 166.64 35.5686275 166 36.5490196 166 36.5490196 165.36 35.5686275 165.36 37 165.01 37"/>
            </g>
        </g>
    </g>
</svg>