<?xml version="1.0" standalone="no"?>
<!DOCTYPE svg PUBLIC "-//W3C//DTD SVG 20010904//EN"
 "http://www.w3.org/TR/2001/REC-SVG-20010904/DTD/svg10.dtd">
<svg version="1.0" xmlns="http://www.w3.org/2000/svg"
 width="4096.000000pt" height="4096.000000pt" viewBox="0 0 4096.000000 4096.000000"
 preserveAspectRatio="xMidYMid meet">

<g transform="translate(0.000000,4096.000000) scale(0.100000,-0.100000)"
fill="#f00" stroke="none">
<path d="M36365 40764 c-11 -2 -51 -6 -88 -9 -56 -6 -70 -11 -83 -30 -14 -21
-16 -120 -14 -865 1 -838 1 -841 -21 -905 -12 -36 -27 -69 -33 -74 -7 -6 -53
-19 -103 -30 -49 -11 -102 -25 -117 -31 -19 -7 -2925 -10 -9169 -10 -6020 0
-9154 -4 -9178 -10 -46 -13 -72 -42 -98 -108 -47 -120 -266 -601 -481 -1057
-143 -304 -253 -540 -420 -905 -59 -129 -124 -269 -145 -310 -21 -41 -68 -142
-106 -225 -94 -209 -253 -552 -339 -730 -40 -82 -96 -202 -125 -265 -29 -63
-76 -164 -105 -225 -29 -60 -81 -173 -115 -250 -34 -77 -140 -306 -235 -510
-95 -203 -207 -446 -250 -540 -43 -93 -100 -217 -128 -275 -27 -58 -73 -154
-102 -215 -29 -60 -103 -220 -165 -355 -62 -135 -184 -396 -270 -580 -87 -184
-199 -425 -250 -535 -51 -110 -154 -330 -230 -490 -75 -159 -167 -357 -205
-440 -37 -82 -103 -224 -145 -315 -42 -91 -130 -280 -195 -420 -65 -140 -155
-331 -200 -425 -45 -93 -103 -219 -130 -280 -26 -60 -79 -175 -118 -255 -97
-204 -179 -380 -260 -560 -71 -158 -109 -239 -227 -485 -37 -77 -109 -232
-160 -345 -114 -251 -263 -573 -343 -740 -33 -69 -73 -154 -89 -190 -17 -36
-44 -94 -61 -130 -17 -36 -69 -148 -115 -250 -47 -102 -135 -291 -197 -420
-62 -129 -148 -314 -192 -410 -98 -216 -360 -780 -481 -1035 -49 -104 -115
-246 -147 -315 -182 -395 -251 -544 -330 -710 -48 -102 -137 -293 -198 -425
-61 -132 -133 -287 -160 -345 -27 -58 -73 -159 -102 -225 -29 -66 -88 -194
-132 -284 -43 -90 -78 -165 -78 -166 0 -2 -61 -131 -136 -286 -146 -303 -225
-473 -499 -1074 -95 -209 -206 -447 -245 -530 -40 -82 -123 -262 -185 -400
-62 -137 -159 -347 -215 -465 -56 -118 -128 -271 -160 -340 -59 -129 -99 -214
-215 -455 -37 -77 -94 -201 -127 -275 -106 -240 -287 -629 -418 -900 -130
-269 -265 -557 -405 -865 -122 -269 -243 -530 -307 -665 -33 -69 -79 -170
-103 -225 -24 -55 -93 -205 -154 -333 -61 -129 -111 -236 -111 -238 0 -2 -44
-97 -99 -211 -54 -115 -167 -354 -251 -533 -84 -179 -193 -410 -242 -515 -50
-104 -123 -262 -163 -350 -40 -88 -112 -245 -160 -350 -322 -699 -385 -834
-442 -954 -35 -73 -93 -199 -129 -280 -36 -80 -88 -193 -116 -251 -28 -58 -91
-193 -140 -300 -49 -107 -119 -256 -155 -330 -36 -74 -88 -184 -115 -245 -27
-60 -79 -171 -115 -245 -36 -74 -96 -202 -133 -285 -37 -82 -126 -274 -198
-425 -72 -151 -140 -306 -150 -345 -11 -38 -49 -124 -84 -190 -87 -164 -259
-521 -339 -705 -68 -158 -203 -415 -237 -453 -21 -23 -49 -60 -62 -82 -30 -50
-132 -150 -224 -220 -65 -48 -255 -115 -330 -115 -21 0 -53 -9 -70 -19 -17
-10 -55 -24 -84 -30 -30 -6 -62 -16 -73 -21 -10 -6 -49 -14 -86 -19 -56 -7
-86 -19 -166 -66 -54 -31 -126 -70 -160 -86 -115 -54 -200 -114 -294 -206 -52
-51 -133 -118 -181 -149 -158 -103 -195 -129 -245 -174 -49 -44 -166 -209
-212 -301 -15 -29 -49 -66 -92 -102 -38 -30 -83 -73 -100 -95 -76 -94 -303
-446 -314 -485 -6 -23 -17 -49 -24 -57 -15 -16 -85 -178 -85 -195 0 -6 -9 -28
-20 -50 -11 -21 -22 -55 -26 -74 -3 -20 -11 -47 -18 -61 -8 -14 -19 -43 -26
-65 -7 -22 -21 -49 -31 -60 -23 -26 -35 -125 -109 -895 -79 -831 -84 -909 -67
-929 18 -20 34 -107 53 -286 15 -135 32 -217 59 -280 30 -71 96 -267 116 -345
11 -47 31 -103 44 -125 13 -22 31 -67 40 -100 10 -33 21 -65 26 -71 5 -6 12
-32 15 -58 7 -47 20 -71 117 -204 67 -93 157 -238 246 -398 51 -91 213 -290
251 -308 10 -4 21 -19 24 -32 4 -13 42 -60 86 -105 44 -44 80 -84 80 -87 0
-15 230 -187 293 -218 57 -29 133 -88 231 -179 49 -45 84 -69 120 -81 28 -9
94 -43 146 -75 52 -31 142 -76 200 -99 96 -37 332 -105 505 -145 39 -8 135
-31 215 -50 80 -18 174 -40 210 -49 154 -36 472 -48 654 -26 45 5 149 17 231
26 83 9 184 25 225 37 41 11 107 28 145 39 39 10 131 23 206 28 162 10 281 38
369 87 36 20 87 47 114 60 27 14 67 39 88 56 22 17 59 43 84 57 125 72 246
154 305 209 59 53 107 91 288 224 24 17 56 45 70 61 14 16 45 48 67 70 23 23
44 53 48 68 3 15 17 38 30 50 13 13 41 50 64 84 22 33 56 73 76 88 50 38 129
158 193 293 50 106 73 144 197 326 25 38 46 76 46 85 0 10 20 44 45 77 25 33
45 67 45 75 0 8 7 28 15 44 8 16 22 54 31 85 9 31 22 70 30 88 8 17 14 35 14
40 0 5 14 52 30 104 42 128 50 192 116 888 51 538 56 611 45 663 -7 34 -9 83
-5 117 7 68 -10 310 -32 431 -35 195 -122 511 -159 575 -27 47 -55 147 -55
198 0 24 11 50 36 83 19 27 98 171 176 319 324 624 581 1120 740 1430 94 182
205 395 248 475 42 80 135 258 205 395 71 138 147 284 170 325 23 41 93 176
155 300 63 124 161 315 219 425 58 110 119 232 137 272 17 40 42 90 56 110 44
68 166 317 188 385 12 37 31 79 43 95 12 15 42 61 67 102 64 107 102 132 222
142 51 5 1633 9 3514 9 l3422 1 45 -28 c115 -71 175 -116 186 -139 8 -18 11
-229 11 -749 0 -712 0 -725 -21 -777 -17 -43 -20 -66 -15 -123 6 -66 -3 -192
-39 -555 -10 -98 -19 -350 -25 -680 -5 -289 -14 -604 -19 -700 -6 -96 -13
-512 -15 -925 -4 -640 -7 -763 -21 -840 -11 -59 -17 -154 -18 -275 -2 -165 0
-189 16 -214 18 -27 21 -27 80 -22 143 14 2318 25 6162 30 4520 6 10261 24
10287 32 9 2 20 12 25 22 4 9 9 323 9 697 1 374 2 889 4 1145 1 256 0 845 -4
1310 -9 1069 -8 1267 7 1465 6 89 11 346 11 583 -1 383 -3 425 -18 440 -16 16
-328 17 -4759 19 -2608 1 -4755 5 -4772 9 -41 9 -44 9 -87 1 -83 -17 -172 36
-205 121 -15 39 -18 74 -17 202 3 348 3 429 2 515 -3 156 36 443 87 645 8 30
19 107 25 170 6 63 22 160 35 215 46 194 86 474 100 705 15 246 33 398 71 592
14 70 29 194 34 275 9 156 24 245 65 383 19 66 25 108 25 190 0 124 23 348 44
440 8 36 18 117 21 180 4 63 15 158 26 212 11 54 19 138 19 192 0 52 6 146 14
208 8 62 17 145 21 183 6 75 25 237 50 425 18 141 67 422 95 550 12 52 28 136
36 185 8 50 23 131 34 180 10 50 29 155 40 235 12 80 34 204 49 275 16 72 34
168 40 215 7 47 27 144 46 215 18 72 39 173 45 225 6 52 20 145 30 205 11 61
24 160 30 220 6 61 17 137 25 170 22 99 54 322 64 452 7 95 14 132 34 174 49
106 136 245 170 272 l34 28 3876 -1 3876 -1 22 22 c17 17 20 28 14 57 -28 144
-32 418 -14 857 7 150 12 917 14 1820 2 858 6 1666 9 1795 3 129 6 370 6 535
1 348 8 328 -107 341 -36 3 -1628 5 -3537 3 -3717 -4 -3499 -7 -3554 44 -55
51 -122 241 -102 291 5 15 10 53 10 84 0 31 7 102 16 157 8 55 21 152 29 215
8 63 17 126 20 140 2 14 9 90 15 170 8 96 19 170 35 220 12 41 33 149 45 240
11 91 32 235 46 320 60 381 85 559 99 716 31 346 33 361 53 401 20 39 40 150
62 348 6 55 18 124 26 152 8 29 21 101 29 160 8 60 25 182 39 273 13 91 29
242 36 335 24 354 25 361 53 404 31 46 42 106 58 306 7 91 19 173 30 208 27
79 55 259 74 457 8 91 19 210 25 265 5 55 10 134 10 175 0 58 5 85 21 115 12
22 28 52 35 66 17 32 39 233 54 494 11 181 13 192 40 240 32 56 50 169 70 435
12 156 13 164 40 225 10 22 23 74 29 115 6 41 20 120 31 175 11 55 24 148 29
207 11 125 29 164 94 203 64 37 113 43 372 49 132 3 443 11 690 16 248 6 857
15 1355 21 1022 11 1863 23 2720 38 322 6 830 13 1130 16 300 3 822 10 1160
15 1513 25 2036 30 2099 20 121 -20 192 -75 212 -166 9 -38 21 -62 39 -78 15
-12 33 -32 39 -44 8 -16 11 -298 11 -1067 -1 -726 2 -1051 10 -1065 21 -39
104 -38 154 1 15 12 35 38 46 59 10 20 34 50 51 64 18 15 45 45 61 67 15 21
50 61 76 88 26 27 74 79 107 116 33 36 85 92 115 125 30 33 81 88 112 122 158
173 186 204 229 247 25 25 58 64 72 86 15 22 40 49 57 60 17 11 41 38 54 60
13 22 45 55 70 73 25 18 146 142 268 275 123 133 261 283 308 332 87 93 318
347 405 445 71 82 247 272 351 380 50 52 130 140 179 195 49 55 143 159 210
230 67 72 139 150 160 175 20 25 52 59 70 77 18 18 66 70 106 115 40 46 119
133 175 193 149 161 491 532 549 596 149 165 607 658 634 683 55 53 47 73 -86
227 -65 73 -167 186 -228 249 -61 63 -214 227 -340 365 -127 137 -327 353
-445 480 -118 127 -313 336 -432 465 -398 429 -459 493 -498 523 -22 16 -40
33 -40 38 0 6 -29 40 -64 77 -35 37 -93 98 -128 136 -104 114 -184 201 -360
390 -31 33 -96 105 -144 158 -48 54 -103 104 -121 113 -18 8 -49 22 -68 31
-25 12 -41 30 -59 68 -25 50 -105 135 -178 189 -27 20 -43 44 -62 95 -31 80
-59 110 -138 147 -60 28 -78 47 -97 107 -21 63 -64 111 -130 147 -46 24 -70
45 -89 76 -14 23 -39 51 -55 60 -16 9 -42 38 -58 62 -15 25 -44 56 -62 69 -19
13 -46 43 -61 68 -14 25 -40 53 -57 63 -17 10 -43 39 -59 65 -16 25 -43 54
-60 65 -17 10 -44 39 -60 65 -16 25 -42 54 -58 63 -16 10 -40 35 -53 57 -23
38 -107 109 -125 107 -5 -1 -18 -3 -29 -5z m-17070 -8035 c25 -15 46 -41 67
-83 31 -60 31 -62 24 -171 -17 -276 -26 -404 -45 -595 -11 -113 -21 -236 -21
-275 0 -73 -16 -222 -50 -465 -11 -80 -24 -179 -30 -220 -6 -41 -21 -154 -35
-250 -24 -165 -49 -381 -95 -825 -11 -104 -27 -221 -35 -260 -8 -38 -26 -169
-40 -290 -14 -121 -34 -287 -45 -370 -11 -82 -29 -235 -40 -340 -11 -104 -32
-266 -45 -360 -13 -93 -29 -240 -35 -325 -6 -85 -18 -186 -25 -225 -17 -83
-66 -447 -95 -700 -11 -99 -27 -232 -35 -295 -33 -259 -65 -532 -75 -645 -6
-66 -15 -141 -20 -166 -10 -49 -58 -431 -85 -674 -27 -249 -115 -964 -140
-1145 -8 -58 -24 -188 -35 -290 -11 -102 -29 -254 -40 -337 -11 -84 -29 -222
-40 -305 -11 -84 -29 -238 -40 -343 -11 -104 -36 -316 -55 -470 -19 -154 -44
-359 -55 -455 -12 -96 -35 -231 -51 -300 -21 -86 -35 -177 -44 -291 -8 -112
-18 -175 -29 -197 -11 -22 -33 -177 -71 -499 -30 -257 -64 -533 -75 -613 -19
-136 -40 -385 -56 -650 -4 -69 -14 -136 -25 -168 -18 -53 -40 -211 -79 -567
-12 -104 -32 -273 -46 -375 -33 -251 -61 -527 -74 -750 -6 -102 -18 -210 -27
-240 -35 -126 -177 -1362 -209 -1820 -3 -52 -12 -113 -20 -136 -8 -22 -25
-137 -39 -255 -44 -367 -57 -422 -112 -486 -29 -33 -107 -83 -200 -127 l-52
-24 -2978 -7 c-2224 -6 -2989 -4 -3020 4 -49 13 -103 55 -103 79 0 10 -12 39
-26 66 -36 67 -53 216 -37 324 15 94 76 247 206 510 53 106 103 216 113 245 9
29 41 97 70 153 30 55 54 108 54 117 0 9 22 58 49 110 27 51 59 123 71 160 12
36 30 76 39 89 28 35 57 97 74 158 9 30 32 81 52 112 20 31 47 89 61 129 13
40 42 103 64 139 22 37 51 99 64 138 12 39 35 86 49 105 35 47 160 317 186
403 11 39 35 90 52 114 42 57 155 310 180 402 11 41 33 89 48 108 38 48 146
283 181 393 19 59 40 103 65 133 48 59 152 277 171 362 22 100 23 102 64 146
21 23 49 68 63 101 81 193 128 298 265 585 32 69 63 136 67 150 4 14 25 57 46
95 21 39 49 100 63 136 13 36 40 95 60 130 38 69 133 284 173 389 13 36 38 86
54 112 38 58 153 310 185 403 13 38 36 87 49 107 34 51 149 303 187 407 16 47
41 99 54 116 30 40 145 293 179 395 14 43 41 98 60 122 37 48 141 276 174 382
23 76 34 97 71 146 15 19 55 98 90 175 98 219 229 504 357 773 29 62 53 115
53 119 0 3 16 37 35 75 20 39 50 104 66 146 17 43 46 105 65 138 18 34 48 96
65 139 16 42 49 113 73 158 63 122 156 324 176 383 10 28 29 69 42 90 26 42
178 379 178 395 0 6 51 114 114 242 63 128 121 255 130 283 9 28 31 76 49 105
46 77 172 354 191 420 8 30 29 74 45 97 17 22 44 80 60 128 17 48 46 111 65
138 19 28 42 76 51 106 27 87 37 111 62 140 22 27 87 158 158 320 36 83 102
227 253 553 56 120 111 254 123 299 16 57 32 92 54 117 41 47 158 305 180 400
13 54 27 84 50 110 33 36 119 198 156 294 11 29 40 91 64 138 25 48 54 113 66
145 12 33 37 86 55 119 18 33 44 90 57 126 14 37 43 100 65 140 22 41 46 92
52 114 7 22 34 81 60 131 26 50 55 115 64 145 10 30 33 79 52 109 18 30 46 89
60 130 15 41 36 87 46 103 25 35 162 332 193 419 13 37 36 84 49 105 34 51
157 321 185 406 13 37 37 89 55 115 40 60 160 320 181 394 9 31 27 71 40 90
13 18 32 43 41 56 9 13 34 69 55 124 21 56 49 113 62 127 28 31 102 157 112
191 11 34 82 137 101 144 9 3 34 6 57 7 23 0 51 4 62 9 26 12 55 5 100 -21z"/>
</g>
</svg>